<mxfile host="app.diagrams.net" agent="Mozilla/5.0 (Windows NT 10.0; Win64; x64) AppleWebKit/537.36 (KHTML, like Gecko) Chrome/131.0.0.0 Safari/537.36" version="25.0.3">
  <diagram name="Página-1" id="4fPj8FKTWWKvgSlPfXeu">
    <mxGraphModel dx="1707" dy="1603" grid="1" gridSize="10" guides="1" tooltips="1" connect="1" arrows="1" fold="1" page="1" pageScale="1" pageWidth="827" pageHeight="1169" math="0" shadow="0">
      <root>
        <mxCell id="0" />
        <mxCell id="1" parent="0" />
        <mxCell id="tzBEl5uezkZAkphJzdvv-1" value="&lt;font style=&quot;font-size: 13px;&quot;&gt;Selecionar um dia para o agendamento&lt;/font&gt;" style="swimlane;whiteSpace=wrap;html=1;" parent="1" vertex="1">
          <mxGeometry x="240" y="220" width="370" height="110" as="geometry" />
        </mxCell>
        <mxCell id="tzBEl5uezkZAkphJzdvv-2" value="&lt;div&gt;&lt;font style=&quot;font-size: 13px;&quot;&gt;d: mostrar os dias disponíveis&lt;/font&gt;&lt;/div&gt;&lt;font style=&quot;font-size: 13px;&quot;&gt;d+u: escolher um dia dentre os listados&lt;/font&gt;" style="text;html=1;align=left;verticalAlign=middle;resizable=0;points=[];autosize=1;strokeColor=none;fillColor=none;rotation=0;" parent="tzBEl5uezkZAkphJzdvv-1" vertex="1">
          <mxGeometry x="18" y="40" width="250" height="40" as="geometry" />
        </mxCell>
        <mxCell id="tzBEl5uezkZAkphJzdvv-5" value="" style="ellipse;whiteSpace=wrap;html=1;aspect=fixed;fillColor=#000000;" parent="1" vertex="1">
          <mxGeometry x="414" y="-110" width="20" height="20" as="geometry" />
        </mxCell>
        <mxCell id="tzBEl5uezkZAkphJzdvv-16" value="" style="edgeStyle=orthogonalEdgeStyle;rounded=0;orthogonalLoop=1;jettySize=auto;html=1;entryX=0.5;entryY=0;entryDx=0;entryDy=0;" parent="1" source="tzBEl5uezkZAkphJzdvv-10" target="tzBEl5uezkZAkphJzdvv-19" edge="1">
          <mxGeometry relative="1" as="geometry">
            <mxPoint x="68.99999999999989" y="353.75" as="targetPoint" />
          </mxGeometry>
        </mxCell>
        <mxCell id="tzBEl5uezkZAkphJzdvv-10" value="" style="whiteSpace=wrap;html=1;fontStyle=1;startSize=23;fillColor=#000000;" parent="1" vertex="1">
          <mxGeometry x="406" y="390" width="38" height="37.5" as="geometry" />
        </mxCell>
        <mxCell id="tzBEl5uezkZAkphJzdvv-19" value="&lt;font style=&quot;font-size: 13px;&quot;&gt;Selecionar um horário disponível&lt;/font&gt;" style="swimlane;whiteSpace=wrap;html=1;startSize=40;" parent="1" vertex="1">
          <mxGeometry x="163.13" y="480" width="523.75" height="120" as="geometry" />
        </mxCell>
        <mxCell id="tzBEl5uezkZAkphJzdvv-34" value="&lt;div&gt;&lt;font style=&quot;font-size: 13px;&quot;&gt;selecionar um horário {d: apresentar apenas os horários disponíveis para aquele dia&lt;/font&gt;&lt;/div&gt;&lt;div&gt;&lt;font style=&quot;font-size: 13px;&quot;&gt;d+u: escolher um horário dentre os listados}&lt;/font&gt;&lt;/div&gt;" style="text;html=1;align=left;verticalAlign=middle;resizable=0;points=[];autosize=1;strokeColor=none;fillColor=none;" parent="tzBEl5uezkZAkphJzdvv-19" vertex="1">
          <mxGeometry x="7.5" y="50" width="510" height="40" as="geometry" />
        </mxCell>
        <mxCell id="tzBEl5uezkZAkphJzdvv-75" value="" style="endArrow=classic;html=1;rounded=0;dashed=1;dashPattern=8 8;exitX=0.25;exitY=1;exitDx=0;exitDy=0;entryX=0;entryY=0.75;entryDx=0;entryDy=0;" parent="1" source="tzBEl5uezkZAkphJzdvv-84" target="tzBEl5uezkZAkphJzdvv-19" edge="1">
          <mxGeometry relative="1" as="geometry">
            <mxPoint x="408.5000000000002" y="745" as="sourcePoint" />
            <mxPoint x="120" y="540" as="targetPoint" />
            <Array as="points">
              <mxPoint x="120" y="710" />
              <mxPoint x="120" y="570" />
            </Array>
          </mxGeometry>
        </mxCell>
        <mxCell id="tzBEl5uezkZAkphJzdvv-76" value="u: editar o horário" style="edgeLabel;resizable=0;html=1;;align=center;verticalAlign=middle;fontSize=12;" parent="tzBEl5uezkZAkphJzdvv-75" connectable="0" vertex="1">
          <mxGeometry relative="1" as="geometry">
            <mxPoint x="-21" y="-70" as="offset" />
          </mxGeometry>
        </mxCell>
        <mxCell id="tzBEl5uezkZAkphJzdvv-84" value="" style="whiteSpace=wrap;html=1;fontStyle=1;startSize=23;fillColor=#000000;direction=south;" parent="1" vertex="1">
          <mxGeometry x="406.25" y="700" width="37.5" height="38" as="geometry" />
        </mxCell>
        <mxCell id="tzBEl5uezkZAkphJzdvv-90" value="" style="endArrow=classic;html=1;rounded=0;exitX=0.5;exitY=1;exitDx=0;exitDy=0;" parent="1" source="tzBEl5uezkZAkphJzdvv-1" target="tzBEl5uezkZAkphJzdvv-10" edge="1">
          <mxGeometry relative="1" as="geometry">
            <mxPoint x="230" y="340" as="sourcePoint" />
            <mxPoint x="330" y="340" as="targetPoint" />
          </mxGeometry>
        </mxCell>
        <mxCell id="tzBEl5uezkZAkphJzdvv-91" value="u: escolher um dia" style="edgeLabel;resizable=0;html=1;;align=center;verticalAlign=middle;fontSize=12;" parent="tzBEl5uezkZAkphJzdvv-90" connectable="0" vertex="1">
          <mxGeometry relative="1" as="geometry" />
        </mxCell>
        <mxCell id="tzBEl5uezkZAkphJzdvv-92" value="" style="endArrow=classic;html=1;rounded=0;exitX=0.5;exitY=1;exitDx=0;exitDy=0;entryX=0;entryY=0.5;entryDx=0;entryDy=0;" parent="1" source="tzBEl5uezkZAkphJzdvv-19" target="tzBEl5uezkZAkphJzdvv-84" edge="1">
          <mxGeometry relative="1" as="geometry">
            <mxPoint x="230" y="540" as="sourcePoint" />
            <mxPoint x="330" y="540" as="targetPoint" />
          </mxGeometry>
        </mxCell>
        <mxCell id="tzBEl5uezkZAkphJzdvv-93" value="&lt;div&gt;&lt;br&gt;&lt;/div&gt;&lt;div&gt;&lt;div&gt;d: apresentar o dia e horário do agendamento&lt;/div&gt;u: confirmar agendamento&lt;/div&gt;" style="edgeLabel;resizable=0;html=1;;align=center;verticalAlign=middle;fontSize=12;" parent="tzBEl5uezkZAkphJzdvv-92" connectable="0" vertex="1">
          <mxGeometry relative="1" as="geometry" />
        </mxCell>
        <mxCell id="tzBEl5uezkZAkphJzdvv-95" value="" style="endArrow=classic;html=1;rounded=0;dashed=1;dashPattern=8 8;exitX=0.5;exitY=0;exitDx=0;exitDy=0;entryX=1;entryY=0.75;entryDx=0;entryDy=0;" parent="1" source="tzBEl5uezkZAkphJzdvv-84" target="tzBEl5uezkZAkphJzdvv-1" edge="1">
          <mxGeometry relative="1" as="geometry">
            <mxPoint x="379.9999999999998" y="708.9999999999998" as="sourcePoint" />
            <mxPoint x="746.25" y="530" as="targetPoint" />
            <Array as="points">
              <mxPoint x="790" y="720" />
              <mxPoint x="792" y="300" />
            </Array>
          </mxGeometry>
        </mxCell>
        <mxCell id="tzBEl5uezkZAkphJzdvv-96" value="u: editar o dia" style="edgeLabel;resizable=0;html=1;;align=center;verticalAlign=middle;fontSize=12;" parent="tzBEl5uezkZAkphJzdvv-95" connectable="0" vertex="1">
          <mxGeometry relative="1" as="geometry">
            <mxPoint x="-1" y="-130" as="offset" />
          </mxGeometry>
        </mxCell>
        <mxCell id="tzBEl5uezkZAkphJzdvv-101" value="" style="ellipse;html=1;shape=endState;fillColor=#000000;strokeColor=#000000;" parent="1" vertex="1">
          <mxGeometry x="410.01" y="790" width="30" height="30" as="geometry" />
        </mxCell>
        <mxCell id="tzBEl5uezkZAkphJzdvv-102" value="" style="endArrow=classic;html=1;rounded=0;exitX=1;exitY=0.5;exitDx=0;exitDy=0;entryX=0.5;entryY=0;entryDx=0;entryDy=0;" parent="1" source="tzBEl5uezkZAkphJzdvv-84" target="tzBEl5uezkZAkphJzdvv-101" edge="1">
          <mxGeometry relative="1" as="geometry">
            <mxPoint x="420" y="790" as="sourcePoint" />
            <mxPoint x="520" y="790" as="targetPoint" />
          </mxGeometry>
        </mxCell>
        <mxCell id="tzBEl5uezkZAkphJzdvv-104" value="" style="rounded=1;whiteSpace=wrap;html=1;fillColor=#bac8d3;strokeColor=#23445d;" parent="1" vertex="1">
          <mxGeometry x="-80" width="100" height="30" as="geometry" />
        </mxCell>
        <mxCell id="tzBEl5uezkZAkphJzdvv-108" value="" style="endArrow=classic;html=1;rounded=0;exitX=0.5;exitY=1;exitDx=0;exitDy=0;entryX=0.5;entryY=0;entryDx=0;entryDy=0;" parent="1" source="tzBEl5uezkZAkphJzdvv-104" target="tzBEl5uezkZAkphJzdvv-110" edge="1">
          <mxGeometry relative="1" as="geometry">
            <mxPoint x="70" y="230" as="sourcePoint" />
            <mxPoint x="112" y="240" as="targetPoint" />
          </mxGeometry>
        </mxCell>
        <mxCell id="tzBEl5uezkZAkphJzdvv-109" value="u: sair" style="edgeLabel;resizable=0;html=1;;align=center;verticalAlign=middle;fontSize=12;" parent="tzBEl5uezkZAkphJzdvv-108" connectable="0" vertex="1">
          <mxGeometry relative="1" as="geometry" />
        </mxCell>
        <mxCell id="tzBEl5uezkZAkphJzdvv-110" value="" style="ellipse;html=1;shape=endState;fillColor=#000000;strokeColor=#000000;" parent="1" vertex="1">
          <mxGeometry x="-44.99999999999999" y="90" width="30" height="30" as="geometry" />
        </mxCell>
        <mxCell id="tzBEl5uezkZAkphJzdvv-112" value="" style="endArrow=classic;html=1;rounded=0;exitX=0.5;exitY=1;exitDx=0;exitDy=0;" parent="1" source="tzBEl5uezkZAkphJzdvv-5" target="tzBEl5uezkZAkphJzdvv-114" edge="1">
          <mxGeometry relative="1" as="geometry">
            <mxPoint x="410" y="70" as="sourcePoint" />
            <mxPoint x="424" y="-10" as="targetPoint" />
          </mxGeometry>
        </mxCell>
        <mxCell id="tzBEl5uezkZAkphJzdvv-114" value="Selecionar a opção de agendamento" style="swimlane;whiteSpace=wrap;html=1;startSize=30;" parent="1" vertex="1">
          <mxGeometry x="216.74" width="414.01" height="90" as="geometry" />
        </mxCell>
        <mxCell id="tzBEl5uezkZAkphJzdvv-119" value="d: exibir o botão de agendamento na página do centro de apoio&lt;div&gt;d+u: clicar no botão de agendamento&lt;/div&gt;" style="text;html=1;align=center;verticalAlign=middle;resizable=0;points=[];autosize=1;strokeColor=none;fillColor=none;" parent="tzBEl5uezkZAkphJzdvv-114" vertex="1">
          <mxGeometry x="12" y="40" width="360" height="40" as="geometry" />
        </mxCell>
        <mxCell id="tzBEl5uezkZAkphJzdvv-117" value="&lt;div style=&quot;&quot;&gt;precond: o usuário já está logado no sistema e tem acesso à internet&lt;/div&gt;&lt;div style=&quot;&quot;&gt;&lt;span style=&quot;background-color: initial;&quot;&gt;u: selecionar um centro de apoio&lt;/span&gt;&lt;/div&gt;" style="text;html=1;align=center;verticalAlign=middle;whiteSpace=wrap;rounded=0;fillColor=#f5f5f5;fontColor=#333333;strokeColor=none;" parent="1" vertex="1">
          <mxGeometry x="227.12" y="-70" width="395.77" height="40" as="geometry" />
        </mxCell>
        <mxCell id="tzBEl5uezkZAkphJzdvv-120" value="" style="endArrow=classic;html=1;rounded=0;exitX=0.5;exitY=1;exitDx=0;exitDy=0;entryX=0.5;entryY=0;entryDx=0;entryDy=0;" parent="1" source="tzBEl5uezkZAkphJzdvv-114" target="tzBEl5uezkZAkphJzdvv-124" edge="1">
          <mxGeometry relative="1" as="geometry">
            <mxPoint x="424.37" y="90" as="sourcePoint" />
            <mxPoint x="424" y="120" as="targetPoint" />
          </mxGeometry>
        </mxCell>
        <mxCell id="tzBEl5uezkZAkphJzdvv-121" value="u: clicar em agendar uma visita ao centro de apoio" style="edgeLabel;resizable=0;html=1;;align=center;verticalAlign=middle;fontSize=12;" parent="tzBEl5uezkZAkphJzdvv-120" connectable="0" vertex="1">
          <mxGeometry relative="1" as="geometry" />
        </mxCell>
        <mxCell id="tzBEl5uezkZAkphJzdvv-124" value="" style="whiteSpace=wrap;html=1;fontStyle=1;startSize=23;fillColor=#000000;" parent="1" vertex="1">
          <mxGeometry x="406" y="140" width="38" height="37.5" as="geometry" />
        </mxCell>
        <mxCell id="tzBEl5uezkZAkphJzdvv-125" value="" style="edgeStyle=orthogonalEdgeStyle;rounded=0;orthogonalLoop=1;jettySize=auto;html=1;entryX=0.5;entryY=0;entryDx=0;entryDy=0;exitX=0.5;exitY=1;exitDx=0;exitDy=0;" parent="1" source="tzBEl5uezkZAkphJzdvv-124" target="tzBEl5uezkZAkphJzdvv-1" edge="1">
          <mxGeometry relative="1" as="geometry">
            <mxPoint x="461" y="168" as="sourcePoint" />
            <mxPoint x="460" y="220" as="targetPoint" />
          </mxGeometry>
        </mxCell>
        <mxCell id="tzBEl5uezkZAkphJzdvv-134" value="" style="endArrow=none;html=1;rounded=0;dashed=1;dashPattern=8 8;entryX=0;entryY=0.5;entryDx=0;entryDy=0;" parent="1" target="tzBEl5uezkZAkphJzdvv-10" edge="1">
          <mxGeometry width="50" height="50" relative="1" as="geometry">
            <mxPoint x="80" y="160" as="sourcePoint" />
            <mxPoint x="386" y="408.75" as="targetPoint" />
            <Array as="points">
              <mxPoint x="80" y="350" />
              <mxPoint x="80" y="410" />
            </Array>
          </mxGeometry>
        </mxCell>
        <mxCell id="MHrtHbmlMicYs49glS4B-1" value="" style="endArrow=classic;html=1;rounded=0;entryX=0;entryY=0.5;entryDx=0;entryDy=0;exitX=0;exitY=0.5;exitDx=0;exitDy=0;dashed=1;dashPattern=8 8;" parent="1" source="tzBEl5uezkZAkphJzdvv-124" target="tzBEl5uezkZAkphJzdvv-114" edge="1">
          <mxGeometry relative="1" as="geometry">
            <mxPoint x="346" y="158.75" as="sourcePoint" />
            <mxPoint x="156.74" y="45" as="targetPoint" />
            <Array as="points">
              <mxPoint x="80" y="159" />
              <mxPoint x="80" y="45" />
            </Array>
          </mxGeometry>
        </mxCell>
        <mxCell id="MHrtHbmlMicYs49glS4B-2" value="&lt;span style=&quot;font-size: 12px;&quot;&gt;u: cancelar o agendamento&lt;/span&gt;" style="edgeLabel;resizable=0;html=1;;align=center;verticalAlign=middle;" parent="MHrtHbmlMicYs49glS4B-1" connectable="0" vertex="1">
          <mxGeometry relative="1" as="geometry">
            <mxPoint x="-15" y="101" as="offset" />
          </mxGeometry>
        </mxCell>
        <mxCell id="MHrtHbmlMicYs49glS4B-3" value="" style="endArrow=none;html=1;rounded=0;dashed=1;dashPattern=8 8;" parent="1" edge="1">
          <mxGeometry width="50" height="50" relative="1" as="geometry">
            <mxPoint x="80" y="400" as="sourcePoint" />
            <mxPoint x="420" y="730" as="targetPoint" />
            <Array as="points">
              <mxPoint x="80" y="729" />
            </Array>
          </mxGeometry>
        </mxCell>
        <mxCell id="UnX48Y7-G3Qe7vid3Y4A-1" value="d: apresenta a tela para agendamento" style="edgeLabel;resizable=0;html=1;;align=center;verticalAlign=middle;fontSize=12;" connectable="0" vertex="1" parent="1">
          <mxGeometry x="423.74230242771193" y="190.00212859410317" as="geometry" />
        </mxCell>
        <mxCell id="UnX48Y7-G3Qe7vid3Y4A-2" value="d: dia salvo com sucesso" style="edgeLabel;resizable=0;html=1;;align=center;verticalAlign=middle;fontSize=12;" connectable="0" vertex="1" parent="1">
          <mxGeometry x="423.74" y="450" as="geometry" />
        </mxCell>
        <mxCell id="UnX48Y7-G3Qe7vid3Y4A-3" value="&lt;div&gt;d: agendamento salvo com sucesso&lt;/div&gt;" style="edgeLabel;resizable=0;html=1;;align=center;verticalAlign=middle;fontSize=12;" connectable="0" vertex="1" parent="1">
          <mxGeometry x="425.01250000000323" y="759.9999999375" as="geometry" />
        </mxCell>
      </root>
    </mxGraphModel>
  </diagram>
</mxfile>
